<?xml version="1.0" encoding="UTF-8"?>
<svg width="1110.6" height="325.77" version="1.1" viewBox="0 0 1110.6 325.77" xml:space="preserve" xmlns="http://www.w3.org/2000/svg">
<desc>Created with Fabric.js 3.6.3</desc>


<g id="text-logo-path" transform="matrix(1.9693 0 0 1.9693 746.92 157.25)" fill="#525252">
<path transform="translate(-187.44 41.8)" d="m5.29-42.46v0q0-8.65 3.42-16.46t9.37-13.57q5.94-5.77 14.41-9.19t18.08-3.42v0q13.09 0 23.33 5.61 10.24 5.62 16.01 15.29v0l-17.12 9.97q-3.06-5.89-8.77-9.28-5.7-3.4-13.45-3.4v0q-10.87 0-17.87 7-6.99 7-6.99 17.45v0q0 6.61 3.12 12.31 3.12 5.71 8.86 9.19 5.73 3.48 12.88 3.48v0q7.45 0 13.12-3.42 5.68-3.42 8.86-9.25v0l17.12 9.85q-5.89 9.85-16.1 15.83-10.21 5.97-23 5.97v0q-9.67 0-18.11-3.42-8.44-3.43-14.38-9.28-5.95-5.86-9.37-13.96-3.42-8.11-3.42-17.3zm109.42 42.46h-21.38l35.8-83.66h22.46l35.91 83.66h-21.5l-5.4-13.03h-40.36zm25.83-60.78-13.28 31.23h26.31zm56.33 25.47v0h20.18q0 8.82 3.55 13.45 3.54 4.62 9.84 4.62v0q6.37 0 9.82-4.74 3.46-4.75 3.46-14.18v-47.5h20.3v47.5q0 17.42-8.53 27.54t-25.05 10.12v0q-6.9 0-13.09-2.73-6.18-2.73-10.69-7.54-4.5-4.8-7.15-11.71-2.64-6.91-2.64-14.83zm99.94 35.31h-21.38l35.79-83.66h22.47l35.91 83.66h-21.5l-5.41-13.03h-40.36zm25.82-60.78-13.27 31.23h26.31z" fill="#525252" stroke-linecap="round" paint-order="stroke"/>
</g>
<g id="logo-logo" transform="matrix(1.2351 0 0 1.2351 143.56 162.88)">
<g paint-order="stroke">
		<g transform="matrix(.6158 0 0 -.6158 -5.1619 5.2022)">
<path transform="translate(-23.098 26.152)" d="m0 0 149.97 86.406-94.947 54.806-158.79-91.626v-183.26l103.77-59.847z" fill="#e2ad73" stroke-linecap="round" paint-order="stroke"/>
</g>
		<g transform="matrix(.6158 0 0 -.6158 -5.1613 -54.214)">
<path transform="translate(-23.1 -70.335)" d="m0 0 149.97 86.407-94.948 54.806-158.79-91.627 103.77-50.129z" fill="#c18346" stroke-linecap="round" paint-order="stroke"/>
</g>
		<g transform="matrix(.6158 0 0 -.6158 51.368 30.99)">
<path transform="translate(98.757 117.61)" d="m0 0-47.875 27.625-149.64-86.304 0.101-193.93 17.843-10.247v189.86l131.48 75.81 30.067-17.364c4.861 5.024 11.636 8.413 18.025 14.547" fill="#5790b3" stroke-linecap="round" paint-order="stroke"/>
</g>
		<g transform="matrix(.6158 0 0 -.6158 63.173 43.191)">
<path transform="translate(79.532 137.43)" d="m0 0-0.121 0.013-158.94-91.613v-183.25l0.121-0.014 158.94 91.614z" fill="#70abd1" stroke-linecap="round" paint-order="stroke"/>
</g>
		<g transform="matrix(.6158 0 0 -.6158 43.523 -64.123)">
<path transform="translate(-47.622 -54.786)" d="m0 0 95.243 54.767-94.76 54.805z" fill="#ad7037" stroke-linecap="round" paint-order="stroke"/>
</g>
		<g transform="matrix(.6158 0 0 -.6158 -48.844 -84.632)">
<path transform="translate(52.482,70.144)" d="m0 0-155.34-89.849 46.922-50.439 158.79 91.627z" fill="#e2ad73" stroke-linecap="round" paint-order="stroke"/>
</g>
</g>
</g>
</svg>
